<svg width="22" height="23" viewBox="0 0 22 23" fill="none" xmlns="http://www.w3.org/2000/svg">
<path d="M12.9167 20.2028H4.58333C3.57081 20.2028 2.75 19.3819 2.75 18.3694V5.53609C2.75 4.52357 3.57081 3.70276 4.58333 3.70276H17.4167C18.4292 3.70276 19.25 4.52357 19.25 5.53609V12.4944" stroke="#838383" stroke-width="1.5" stroke-linecap="round" stroke-linejoin="round"/>
<path d="M14.6667 1.86951V5.53617" stroke="#838383" stroke-width="1.5" stroke-linecap="round" stroke-linejoin="round"/>
<path d="M7.33334 1.86951V5.53617" stroke="#838383" stroke-width="1.5" stroke-linecap="round" stroke-linejoin="round"/>
<path d="M2.75 9.20276H19.25" stroke="#838383" stroke-width="1.5" stroke-linecap="round" stroke-linejoin="round"/>
<path d="M16.5 21.0078C18.9393 21.0078 20.9167 19.0304 20.9167 16.5911C20.9167 14.1518 18.9393 12.1744 16.5 12.1744C14.0608 12.1744 12.0833 14.1518 12.0833 16.5911C12.0833 19.0304 14.0608 21.0078 16.5 21.0078Z" stroke="#838383" stroke-width="1.5" stroke-linecap="round" stroke-linejoin="round"/>
<path d="M16.3167 15.3079V17.5079L17.7833 18.2412" stroke="#838383" stroke-width="1.2" stroke-linecap="round" stroke-linejoin="round"/>
</svg>
