<svg width="18" height="19" viewBox="0 0 18 19" fill="none" xmlns="http://www.w3.org/2000/svg">
<path fill-rule="evenodd" clip-rule="evenodd" d="M5 2.03613H3C2.17157 2.03613 1.5 2.70771 1.5 3.53613V5.53613C1.5 6.36456 2.17157 7.03613 3 7.03613H5C5.82843 7.03613 6.5 6.36456 6.5 5.53613V3.53613C6.5 2.70771 5.82843 2.03613 5 2.03613ZM3 0.536133C1.34315 0.536133 0 1.87928 0 3.53613V5.53613C0 7.19299 1.34315 8.53613 3 8.53613H5C6.65685 8.53613 8 7.19299 8 5.53613V3.53613C8 1.87928 6.65685 0.536133 5 0.536133H3Z" fill="#838383"/>
<path fill-rule="evenodd" clip-rule="evenodd" d="M5 12.0361H3C2.17157 12.0361 1.5 12.7077 1.5 13.5361V15.5361C1.5 16.3646 2.17157 17.0361 3 17.0361H5C5.82843 17.0361 6.5 16.3646 6.5 15.5361V13.5361C6.5 12.7077 5.82843 12.0361 5 12.0361ZM3 10.5361C1.34315 10.5361 0 11.8793 0 13.5361V15.5361C0 17.193 1.34315 18.5361 3 18.5361H5C6.65685 18.5361 8 17.193 8 15.5361V13.5361C8 11.8793 6.65685 10.5361 5 10.5361H3Z" fill="#838383"/>
<path fill-rule="evenodd" clip-rule="evenodd" d="M15 2.03613H13C12.1716 2.03613 11.5 2.70771 11.5 3.53613V5.53613C11.5 6.36456 12.1716 7.03613 13 7.03613H15C15.8284 7.03613 16.5 6.36456 16.5 5.53613V3.53613C16.5 2.70771 15.8284 2.03613 15 2.03613ZM13 0.536133C11.3431 0.536133 10 1.87928 10 3.53613V5.53613C10 7.19299 11.3431 8.53613 13 8.53613H15C16.6569 8.53613 18 7.19299 18 5.53613V3.53613C18 1.87928 16.6569 0.536133 15 0.536133H13Z" fill="#838383"/>
<path fill-rule="evenodd" clip-rule="evenodd" d="M15 12.0361H13C12.1716 12.0361 11.5 12.7077 11.5 13.5361V15.5361C11.5 16.3646 12.1716 17.0361 13 17.0361H15C15.8284 17.0361 16.5 16.3646 16.5 15.5361V13.5361C16.5 12.7077 15.8284 12.0361 15 12.0361ZM13 10.5361C11.3431 10.5361 10 11.8793 10 13.5361V15.5361C10 17.193 11.3431 18.5361 13 18.5361H15C16.6569 18.5361 18 17.193 18 15.5361V13.5361C18 11.8793 16.6569 10.5361 15 10.5361H13Z" fill="#838383"/>
</svg>
