<svg width="20" height="21" viewBox="0 0 20 21" fill="none" xmlns="http://www.w3.org/2000/svg">
<path fill-rule="evenodd" clip-rule="evenodd" d="M14 16.5361H18.5858C19.3668 16.5361 20 15.903 20 15.1219C20 14.7468 19.851 14.3871 19.5858 14.1219L18.5858 13.1219C18.2107 12.7468 18 12.2381 18 11.7077L18 8.5068C18 4.10472 14.4314 0.536133 10.0293 0.536133C5.61789 0.536133 2.04543 4.11932 2.05867 8.53073L2.06814 11.6837C2.06977 12.2283 1.84928 12.75 1.45759 13.1283L0.428635 14.1221C0.154705 14.3867 2.07459e-06 14.7512 0 15.1321C0 15.9075 0.628628 16.5361 1.40408 16.5361H6C6 18.7453 7.79086 20.5361 10 20.5361C12.2091 20.5361 14 18.7453 14 16.5361ZM17.5251 14.1826L18.3787 15.0361H1.64147L2.49967 14.2072C3.18513 13.5452 3.57099 12.6322 3.56813 11.6792L3.55867 8.52623C3.54792 4.945 6.44807 2.03613 10.0293 2.03613C13.603 2.03613 16.5 4.93315 16.5 8.5068L16.5 11.7077C16.5 12.636 16.8687 13.5262 17.5251 14.1826ZM12.5 16.5361H7.5C7.5 17.9168 8.61929 19.0361 10 19.0361C11.3807 19.0361 12.5 17.9168 12.5 16.5361Z" fill="#838383"/>
</svg>
