<svg width="22" height="23" viewBox="0 0 22 23" fill="none" xmlns="http://www.w3.org/2000/svg">
<path d="M19.4425 14.6019C18.8593 15.981 17.9472 17.1963 16.7859 18.1414C15.6246 19.0866 14.2494 19.7329 12.7806 20.0238C11.3118 20.3147 9.79407 20.2414 8.36015 19.8102C6.92623 19.3791 5.61975 18.6032 4.55495 17.5505C3.49014 16.4978 2.69943 15.2003 2.25193 13.7714C1.80443 12.3425 1.71378 10.8257 1.98789 9.35366C2.26201 7.88163 2.89255 6.49916 3.82439 5.32711C4.75623 4.15506 5.96099 3.22912 7.33335 2.63025" stroke="#838383" stroke-width="1.5" stroke-linecap="round" stroke-linejoin="round"/>
<path d="M20.1667 11.0362C20.1667 9.83239 19.9296 8.64039 19.4689 7.52824C19.0082 6.41609 18.333 5.40557 17.4818 4.55436C16.6306 3.70316 15.6201 3.02795 14.5079 2.56728C13.3958 2.10661 12.2038 1.86951 11 1.86951V11.0362H20.1667Z" stroke="#838383" stroke-width="1.5" stroke-linecap="round" stroke-linejoin="round"/>
</svg>
