<svg width="21" height="23" viewBox="0 0 21 23" fill="none" xmlns="http://www.w3.org/2000/svg">
<path fill-rule="evenodd" clip-rule="evenodd" d="M10.1047 13.5361C11.4854 13.5361 12.6047 12.4168 12.6047 11.0361C12.6047 9.65542 11.4854 8.53613 10.1047 8.53613C8.72399 8.53613 7.60471 9.65542 7.60471 11.0361C7.60471 12.4168 8.72399 13.5361 10.1047 13.5361ZM14.1047 11.0361C14.1047 13.2453 12.3138 15.0361 10.1047 15.0361C7.89557 15.0361 6.10471 13.2453 6.10471 11.0361C6.10471 8.82699 7.89557 7.03613 10.1047 7.03613C12.3138 7.03613 14.1047 8.82699 14.1047 11.0361Z" fill="#838383"/>
<path fill-rule="evenodd" clip-rule="evenodd" d="M9.00945 1.87802L8.62189 3.04068C8.29511 4.02104 7.57802 4.7155 6.82686 5.13376C6.7628 5.16942 6.69939 5.2061 6.63662 5.24378C5.89796 5.68722 4.93664 5.96181 3.92302 5.75439L2.72125 5.50846C2.5104 5.46532 2.2956 5.56193 2.18799 5.74831L1.56701 6.82388C1.4594 7.01027 1.48313 7.2446 1.62592 7.40562L2.44095 8.32474C3.125 9.09615 3.36996 10.0629 3.35631 10.9243C3.35513 10.9988 3.35513 11.0734 3.35631 11.1479C3.36995 12.0093 3.12499 12.9761 2.44095 13.7475L1.62592 14.6666C1.48313 14.8276 1.4594 15.0619 1.56701 15.2483L2.18799 16.3239C2.2956 16.5103 2.5104 16.6069 2.72125 16.5637L3.92294 16.3178C4.93657 16.1104 5.8979 16.385 6.63657 16.8284C6.69935 16.8661 6.76279 16.9028 6.82686 16.9385C7.57802 17.3568 8.29511 18.0512 8.62189 19.0316L9.00945 20.1942C9.0775 20.3984 9.26857 20.5361 9.48379 20.5361H10.7258C10.941 20.5361 11.132 20.3984 11.2001 20.1942L11.5876 19.0316C11.9144 18.0512 12.6315 17.3568 13.3827 16.9385C13.4467 16.9028 13.5102 16.8661 13.573 16.8285C14.3116 16.385 15.273 16.1104 16.2866 16.3178L17.4882 16.5637C17.6991 16.6069 17.9139 16.5103 18.0215 16.3239L18.6425 15.2483C18.7501 15.0619 18.7264 14.8276 18.5836 14.6666L17.7686 13.7475C17.0845 12.9761 16.8396 12.0094 16.8532 11.1479C16.8544 11.0734 16.8544 10.9988 16.8532 10.9243C16.8396 10.0629 17.0845 9.0961 17.7686 8.32468L18.5836 7.40562C18.7264 7.2446 18.7501 7.01027 18.6425 6.82389L18.0215 5.74831C17.9139 5.56193 17.6991 5.46532 17.4882 5.50847L16.2865 5.75438C15.2729 5.9618 14.3116 5.68721 13.5729 5.24378C13.5101 5.2061 13.4467 5.16942 13.3827 5.13376C12.6315 4.7155 11.9144 4.02103 11.5876 3.04068L11.2001 1.87802C11.132 1.67385 10.941 1.53613 10.7258 1.53613H9.48379C9.26857 1.53613 9.0775 1.67385 9.00945 1.87802ZM7.19887 2.56634C7.01662 3.11307 6.60065 3.54286 6.09714 3.82322C6.01882 3.86683 5.94129 3.91167 5.86457 3.95773C5.36987 4.25471 4.78902 4.40052 4.22374 4.28484L3.02197 4.03892C2.17858 3.86633 1.31938 4.25279 0.888954 4.99831L0.267973 6.07388C-0.162457 6.81941 -0.0675375 7.75673 0.503618 8.40082L1.31865 9.31994C1.70056 9.75063 1.86562 10.325 1.8565 10.9006C1.85506 10.9909 1.85506 11.0813 1.85649 11.1717C1.86561 11.7472 1.70056 12.3216 1.31864 12.7523L0.503619 13.6714C-0.0675365 14.3155 -0.162457 15.2528 0.267973 15.9983L0.888954 17.0739C1.31938 17.8194 2.17858 18.2059 3.02197 18.0333L4.22366 17.7874C4.78894 17.6717 5.36981 17.8175 5.86451 18.1145C5.94125 18.1606 6.0188 18.2054 6.09714 18.249C6.60065 18.5294 7.01662 18.9592 7.19887 19.5059L7.58642 20.6686C7.85865 21.4853 8.62293 22.0361 9.48379 22.0361H10.7258C11.5866 22.0361 12.3509 21.4853 12.6231 20.6686L13.0107 19.5059C13.1929 18.9592 13.6089 18.5294 14.1124 18.249C14.1907 18.2054 14.2683 18.1606 14.345 18.1145C14.8397 17.8175 15.4206 17.6717 15.9859 17.7874L17.1875 18.0333C18.0309 18.2059 18.8901 17.8194 19.3205 17.0739L19.9415 15.9983C20.3719 15.2528 20.277 14.3155 19.7059 13.6714L18.8909 12.7523C18.509 12.3216 18.3439 11.7473 18.353 11.1717C18.3545 11.0813 18.3545 10.9909 18.353 10.9005C18.3439 10.3249 18.509 9.75058 18.8909 9.31989L19.7059 8.40083C20.277 7.75673 20.3719 6.81941 19.9415 6.07389L19.3205 4.99832C18.8901 4.25279 18.0309 3.86633 17.1875 4.03892L15.9858 4.28484C15.4205 4.40051 14.8397 4.2547 14.345 3.95772C14.2682 3.91167 14.1907 3.86682 14.1124 3.82322C13.6089 3.54286 13.1929 3.11307 13.0107 2.56634L12.6231 1.40368C12.3509 0.586992 11.5866 0.0361328 10.7258 0.0361328H9.48379C8.62293 0.0361328 7.85865 0.586993 7.58642 1.40368L7.19887 2.56634Z" fill="#838383"/>
</svg>
